<svg class="h-6 md:h-8 xl:h-[38px] w-auto" width="118" height="24" xmlns="http://www.w3.org/2000/svg" viewBox="0 0 782.12 157.55" fill="currentColor">
					<path d="M745.31,38.48H684.18V97.76l9.07,21h22.44V94.31h18.57a21.42,21.42,0,0,1,6.17.73A6.65,6.65,0,0,1,744,97.55a10.15,10.15,0,0,1,1.52,4.72c.17,1.69.28,3.32.31,4.88s.06,3,.11,4.44a24.46,24.46,0,0,0,.44,3.89,9.94,9.94,0,0,0,1.24,3.26h34.48v-1.22a5.65,5.65,0,0,1-2.67-3.46,29.07,29.07,0,0,1-1.1-6.67c-.19-2.75-.38-6-.54-9.88a56.16,56.16,0,0,0-.53-6,15.69,15.69,0,0,0-1.42-4.64A11,11,0,0,0,773,83.25a19.5,19.5,0,0,0-5.09-2.87,19.89,19.89,0,0,0,11.59-11.55A24.23,24.23,0,0,0,781,60a21.72,21.72,0,0,0-2.34-10.26,18.27,18.27,0,0,0-6.84-7.21,27.34,27.34,0,0,0-10.44-3.2,119,119,0,0,0-16.09-.89ZM244,55.73a31.79,31.79,0,0,1,7.62.71A7.62,7.62,0,0,1,256,59.06a8.6,8.6,0,0,1,1.43,5.29A8.81,8.81,0,0,1,256,69.71a7.6,7.6,0,0,1-4.43,2.65,31.23,31.23,0,0,1-7.62.72H227V55.73ZM715.69,73.19V58.82H733a50.51,50.51,0,0,1,7.59.46,8.25,8.25,0,0,1,4.59,2,6.07,6.07,0,0,1,1.53,4.52,6.51,6.51,0,0,1-1.46,4.53A8,8,0,0,1,741,72.56a33.41,33.41,0,0,1-7.13.63ZM619.15,91.1l10.17-28.3,9.62,28.3ZM330.42,38.48H299.36V80.6q0,13.91,5.1,22.84a30.62,30.62,0,0,0,15.62,13.23q10.53,4.31,26.7,4.28t26.71-4.22A30.27,30.27,0,0,0,389,103.54q5.08-8.92,5-22.94V38.48H363V77.73a52.18,52.18,0,0,1-.74,9.74,16.65,16.65,0,0,1-2.58,6.65,10.62,10.62,0,0,1-5,3.83,26.58,26.58,0,0,1-15.92,0,10.83,10.83,0,0,1-5-3.83,16.52,16.52,0,0,1-2.61-6.65,51.19,51.19,0,0,1-.76-9.74V38.48ZM195.89,118.74H227V90.55h29c7.69,0,14.15-1.07,19.42-3.13a25.39,25.39,0,0,0,12-8.92,24.17,24.17,0,0,0,4.09-14,24,24,0,0,0-4.09-14,25.47,25.47,0,0,0-12-8.89c-5.27-2.05-11.73-3.1-19.42-3.12h-60v80.26Zm207.88,0h73.79c-7.86-4.77-11.94-13.08-12.88-24.31H434.94v-56H403.77v80.26Zm70.86-24.43h37.58c.3,2.11,1.64,3.77,4,5s5.73,1.78,10,1.79,7.3-.47,9.42-1.42,3.18-2.39,3.18-4.33c0-1.71-.93-3.11-2.8-4.17a23.66,23.66,0,0,0-8.36-2.24L504.48,86q-14.43-1.78-21.69-7.76t-7.28-16.12c0-6.1,1.67-11,5-14.83S489,40.73,495.8,39s15.47-2.6,25.92-2.6Q538,36.38,549,39c7.31,1.75,12.9,4.51,16.72,8.25a21.88,21.88,0,0,1,6.42,14.55H536a7.48,7.48,0,0,0-4.48-5.67c-2.6-1.3-6.3-2-11.11-2-3.7,0-6.52.52-8.42,1.49s-2.85,2.23-2.85,3.82a3.39,3.39,0,0,0,1.31,2.78A10.34,10.34,0,0,0,514.37,64c1.76.44,4,.78,6.69,1.16l28.3,4.09c8.83,1.28,15.46,3.83,19.84,7.7s6.57,9.13,6.58,15.74-2,12.13-5.95,16.34-10,7.28-18.06,9.25-18.22,3-30.49,2.93q-15.25,0-25.61-3.21c-11.34-3.48-20.88-10.89-21-23.65Zm101,24.43h33.27l2.88-8H645.9l2.66,8h33.6L649.77,38.48H610.31Z"></path>
					<path d="M43.31,8.52A78.74,78.74,0,1,0,149.22,43.18,78.8,78.8,0,0,0,43.31,8.52ZM53.1,137.7l14.47-33.48,84.15-22.44a68.58,68.58,0,0,1-5.26,20c-15.2,35.11-57.3,51.28-93.36,35.89Zm99-62c-48.85-.16-97.41-.1-146.26.25L5.9,70.6l85-20.38L108.56,9.33a72.27,72.27,0,0,1,38.27,38.8A69.36,69.36,0,0,1,152.09,75.67Z"></path>
				</svg>